<svg width="64" height="64" viewBox="0 0 64 64" fill="none" xmlns="http://www.w3.org/2000/svg">
<g id="fe:plus">
<path id="Vector" fill-rule="evenodd" clip-rule="evenodd" d="M34.6667 34.6667V53.3333C34.6667 54.0406 34.3857 54.7189 33.8856 55.219C33.3855 55.7191 32.7072 56 32 56C31.2928 56 30.6145 55.7191 30.1144 55.219C29.6143 54.7189 29.3333 54.0406 29.3333 53.3333V34.6667H10.6667C9.95942 34.6667 9.28115 34.3857 8.78105 33.8856C8.28095 33.3855 8 32.7072 8 32C8 31.2928 8.28095 30.6145 8.78105 30.1144C9.28115 29.6143 9.95942 29.3333 10.6667 29.3333H29.3333V10.6667C29.3333 9.95942 29.6143 9.28115 30.1144 8.78105C30.6145 8.28095 31.2928 8 32 8C32.7072 8 33.3855 8.28095 33.8856 8.78105C34.3857 9.28115 34.6667 9.95942 34.6667 10.6667V29.3333H53.3333C54.0406 29.3333 54.7189 29.6143 55.219 30.1144C55.7191 30.6145 56 31.2928 56 32C56 32.7072 55.7191 33.3855 55.219 33.8856C54.7189 34.3857 54.0406 34.6667 53.3333 34.6667H34.6667Z" fill="black"/>
</g>
</svg>
