<svg width="38" height="35" viewBox="0 0 38 35" fill="none" xmlns="http://www.w3.org/2000/svg">
<g id="mingcute:search-line" clip-path="url(#clip0_60_134)">
<g id="Group">
<path id="Vector" fill-rule="evenodd" clip-rule="evenodd" d="M16.9317 2.9165C14.8631 2.91667 12.8246 3.38954 10.9861 4.29564C9.14772 5.20175 7.56271 6.51482 6.36337 8.12531C5.16402 9.7358 4.38511 11.597 4.09163 13.5537C3.79815 15.5103 3.9986 17.5056 4.67626 19.3732C5.35392 21.2407 6.48914 22.9264 7.98721 24.2894C9.48527 25.6525 11.3027 26.6535 13.288 27.2088C15.2732 27.7642 17.3687 27.8579 19.3995 27.482C21.4304 27.1061 23.3377 26.2717 24.9624 25.0482L30.5359 30.374C30.8237 30.6397 31.2093 30.7866 31.6094 30.7833C32.0096 30.78 32.3923 30.6266 32.6753 30.3562C32.9583 30.0859 33.1188 29.7201 33.1222 29.3377C33.1257 28.9553 32.9719 28.587 32.6939 28.3119L27.1203 22.9861C28.6282 21.1582 29.567 18.9617 29.8294 16.6478C30.0918 14.3339 29.6672 11.9961 28.6041 9.90206C27.541 7.808 25.8825 6.04223 23.8182 4.80684C21.7539 3.57145 19.3674 2.91635 16.9317 2.9165ZM7.01163 15.3123C7.01163 12.7983 8.05677 10.3872 9.91714 8.60955C11.7775 6.83187 14.3007 5.83317 16.9317 5.83317C19.5626 5.83317 22.0859 6.83187 23.9462 8.60955C25.8066 10.3872 26.8517 12.7983 26.8517 15.3123C26.8517 17.8264 25.8066 20.2374 23.9462 22.0151C22.0859 23.7928 19.5626 24.7915 16.9317 24.7915C14.3007 24.7915 11.7775 23.7928 9.91714 22.0151C8.05677 20.2374 7.01163 17.8264 7.01163 15.3123Z" fill="black"/>
</g>
</g>
<defs>
<clipPath id="clip0_60_134">
<rect width="36.6279" height="35" fill="white" transform="translate(0.906982)"/>
</clipPath>
</defs>
</svg>
