<svg width="31" height="31" viewBox="0 0 31 31" fill="none" xmlns="http://www.w3.org/2000/svg">
<path id="Vector" d="M2.25682 2.21586C0.116577 4.35519 0.116577 7.7987 0.116577 14.6849V15.9022C0.116577 22.7885 0.116577 26.232 2.25682 28.3712C4.39719 30.5105 7.84237 30.5105 14.7319 30.5105H15.9499C22.8395 30.5105 26.2847 30.5105 28.4249 28.3712C30.5652 26.232 30.5652 22.7885 30.5652 15.9022V14.6849C30.5652 7.79863 30.5652 4.35512 28.4249 2.21586C26.2847 0.0766604 22.8395 0.0766602 15.9499 0.0766602H14.7319C7.84231 0.0766602 4.39712 0.0766604 2.25682 2.21586ZM5.25478 9.3337H8.73103C8.84521 15.1415 11.4079 17.6015 13.4379 18.1088V9.33363H16.7111V14.3425C18.7156 14.127 20.8216 11.8444 21.5321 9.33363H24.8053C24.5375 10.6358 24.0038 11.8687 23.2376 12.9553C22.4714 14.0419 21.4891 14.9588 20.3522 15.6487C21.6216 16.2785 22.7428 17.1705 23.6417 18.2657C24.5406 19.3609 25.1966 20.6343 25.5665 22.0017H21.9635C21.6315 20.8139 20.9558 19.7506 20.0214 18.9452C19.087 18.1398 17.9354 17.6282 16.7111 17.4747V22.0017H16.3178C9.37806 22.0017 5.41974 17.2464 5.25478 9.33363V9.3337Z" fill="black" fill-opacity="0.5"/>
</svg>
