<svg width="32" height="31" viewBox="0 0 32 31" fill="none" xmlns="http://www.w3.org/2000/svg">
<g id="carbon:shape-exclude">
<path id="Vector" d="M11.6478 9.77073H21.3542V4.04156C21.3542 3.53507 21.1497 3.04932 20.7856 2.69118C20.4216 2.33304 19.9278 2.13184 19.4129 2.13184H3.88258C3.36772 2.13184 2.87394 2.33304 2.50988 2.69118C2.14581 3.04932 1.94128 3.53507 1.94128 4.04156V19.3193C1.94128 19.8258 2.14581 20.3116 2.50988 20.6697C2.87394 21.0279 3.36772 21.2291 3.88258 21.2291H9.70647V11.6804C9.70647 11.174 9.911 10.6882 10.2751 10.3301C10.6391 9.97193 11.1329 9.77073 11.6478 9.77073Z" fill="black" fill-opacity="0.5"/>
<path id="Vector_2" d="M27.1781 9.771H21.3543V19.3196C21.3543 19.8261 21.1497 20.3118 20.7857 20.67C20.4216 21.0281 19.9278 21.2293 19.413 21.2293H9.70648V26.9585C9.70648 27.465 9.91101 27.9507 10.2751 28.3089C10.6391 28.667 11.1329 28.8682 11.6478 28.8682H27.1781C27.693 28.8682 28.1868 28.667 28.5508 28.3089C28.9149 27.9507 29.1194 27.465 29.1194 26.9585V11.6807C29.1194 11.1742 28.9149 10.6885 28.5508 10.3303C28.1868 9.9722 27.693 9.771 27.1781 9.771Z" fill="black" fill-opacity="0.5"/>
</g>
</svg>
