<svg width="21" height="23" viewBox="0 0 21 23" fill="none" xmlns="http://www.w3.org/2000/svg">
<path d="M1.35544 0.185059C1.01832 0.185059 0.695018 0.321633 0.456643 0.564735C0.218268 0.807838 0.0843506 1.13756 0.0843506 1.48135C0.0843506 1.82515 0.218268 2.15487 0.456643 2.39797C0.695018 2.64108 1.01832 2.77765 1.35544 2.77765H8.98195V20.9258C8.98195 21.2696 9.11587 21.5993 9.35425 21.8424C9.59262 22.0855 9.91593 22.2221 10.253 22.2221C10.5902 22.2221 10.9135 22.0855 11.1518 21.8424C11.3902 21.5993 11.5241 21.2696 11.5241 20.9258V2.77765H19.1506C19.4878 2.77765 19.8111 2.64108 20.0494 2.39797C20.2878 2.15487 20.4217 1.82515 20.4217 1.48135C20.4217 1.13756 20.2878 0.807838 20.0494 0.564735C19.8111 0.321633 19.4878 0.185059 19.1506 0.185059H1.35544Z" fill="black" fill-opacity="0.5"/>
</svg>
