<svg width="36" height="36" viewBox="0 0 36 36" fill="none" xmlns="http://www.w3.org/2000/svg">
<circle cx="18" cy="18" r="18" fill="#BFC2D6"/>
<path fill-rule="evenodd" clip-rule="evenodd" d="M18.6667 18.6667V23.3333C18.6667 23.5101 18.5964 23.6797 18.4714 23.8047C18.3464 23.9298 18.1768 24 18 24C17.8232 24 17.6536 23.9298 17.5286 23.8047C17.4036 23.6797 17.3333 23.5101 17.3333 23.3333V18.6667H12.6667C12.4899 18.6667 12.3203 18.5964 12.1953 18.4714C12.0702 18.3464 12 18.1768 12 18C12 17.8232 12.0702 17.6536 12.1953 17.5286C12.3203 17.4036 12.4899 17.3333 12.6667 17.3333H17.3333V12.6667C17.3333 12.4899 17.4036 12.3203 17.5286 12.1953C17.6536 12.0702 17.8232 12 18 12C18.1768 12 18.3464 12.0702 18.4714 12.1953C18.5964 12.3203 18.6667 12.4899 18.6667 12.6667V17.3333H23.3333C23.5101 17.3333 23.6797 17.4036 23.8047 17.5286C23.9298 17.6536 24 17.8232 24 18C24 18.1768 23.9298 18.3464 23.8047 18.4714C23.6797 18.5964 23.5101 18.6667 23.3333 18.6667H18.6667Z" fill="black"/>
</svg>
