<svg width="32" height="32" viewBox="0 0 32 32" fill="none" xmlns="http://www.w3.org/2000/svg">
<g id="ri:shape-line">
<path id="Vector" d="M10.1336 26.7037C9.91479 27.3232 9.54292 27.8771 9.05264 28.3137C8.56236 28.7503 7.96966 29.0554 7.32983 29.2005C6.69 29.3456 6.02389 29.3261 5.39365 29.1436C4.76341 28.9612 4.18958 28.6218 3.7257 28.1572C3.26181 27.6925 2.92299 27.1178 2.74084 26.4865C2.55869 25.8553 2.53915 25.1881 2.68405 24.5472C2.82894 23.9063 3.13355 23.3127 3.56944 22.8216C4.00534 22.3305 4.55832 21.958 5.1768 21.7389V10.9278C4.55832 10.7087 4.00534 10.3362 3.56944 9.84511C3.13355 9.35404 2.82894 8.76037 2.68405 8.1195C2.53915 7.47863 2.55869 6.81144 2.74084 6.18018C2.92299 5.54892 3.26181 4.97416 3.7257 4.50953C4.18958 4.04489 4.76341 3.70552 5.39365 3.52307C6.02389 3.34063 6.69 3.32106 7.32983 3.46619C7.96966 3.61131 8.56236 3.91641 9.05264 4.35302C9.54292 4.78962 9.91479 5.3435 10.1336 5.96298H20.9272C21.146 5.3435 21.5178 4.78962 22.0081 4.35302C22.4984 3.91641 23.0911 3.61131 23.7309 3.46619C24.3708 3.32106 25.0369 3.34063 25.6671 3.52307C26.2973 3.70552 26.8712 4.04489 27.3351 4.50953C27.7989 4.97416 28.1378 5.54892 28.3199 6.18018C28.5021 6.81144 28.5216 7.47863 28.3767 8.1195C28.2318 8.76037 27.9272 9.35404 27.4913 9.84511C27.0554 10.3362 26.5024 10.7087 25.884 10.9278V21.7389C26.5024 21.958 27.0554 22.3305 27.4913 22.8216C27.9272 23.3127 28.2318 23.9063 28.3767 24.5472C28.5216 25.1881 28.5021 25.8553 28.3199 26.4865C28.1378 27.1178 27.7989 27.6925 27.3351 28.1572C26.8712 28.6218 26.2973 28.9612 25.6671 29.1436C25.0369 29.3261 24.3708 29.3456 23.7309 29.2005C23.0911 29.0554 22.4984 28.7503 22.0081 28.3137C21.5178 27.8771 21.146 27.3232 20.9272 26.7037H10.1336ZM10.1336 24.1111H20.9272C21.1209 23.5641 21.434 23.0673 21.8437 22.6569C22.2535 22.2466 22.7495 21.9329 23.2956 21.7389V10.9278C22.7494 10.7339 22.2534 10.4202 21.8436 10.0098C21.4339 9.59945 21.1208 9.10261 20.9272 8.55557H10.1336C9.93995 9.10261 9.62685 9.59945 9.21711 10.0098C8.80738 10.4202 8.31134 10.7339 7.76519 10.9278V21.7389C8.31134 21.9328 8.80738 22.2464 9.21711 22.6569C9.62685 23.0673 9.93995 23.5641 10.1336 24.1111ZM6.47099 8.55557C6.81424 8.55557 7.14342 8.419 7.38613 8.1759C7.62884 7.93279 7.76519 7.60307 7.76519 7.25928C7.76519 6.91548 7.62884 6.58576 7.38613 6.34266C7.14342 6.09955 6.81424 5.96298 6.47099 5.96298C6.12775 5.96298 5.79857 6.09955 5.55586 6.34266C5.31315 6.58576 5.1768 6.91548 5.1768 7.25928C5.1768 7.60307 5.31315 7.93279 5.55586 8.1759C5.79857 8.419 6.12775 8.55557 6.47099 8.55557ZM24.5898 8.55557C24.933 8.55557 25.2622 8.419 25.5049 8.1759C25.7476 7.93279 25.884 7.60307 25.884 7.25928C25.884 6.91548 25.7476 6.58576 25.5049 6.34266C25.2622 6.09955 24.933 5.96298 24.5898 5.96298C24.2465 5.96298 23.9173 6.09955 23.6746 6.34266C23.4319 6.58576 23.2956 6.91548 23.2956 7.25928C23.2956 7.60307 23.4319 7.93279 23.6746 8.1759C23.9173 8.419 24.2465 8.55557 24.5898 8.55557ZM24.5898 26.7037C24.933 26.7037 25.2622 26.5671 25.5049 26.324C25.7476 26.0809 25.884 25.7512 25.884 25.4074C25.884 25.0636 25.7476 24.7339 25.5049 24.4908C25.2622 24.2477 24.933 24.1111 24.5898 24.1111C24.2465 24.1111 23.9173 24.2477 23.6746 24.4908C23.4319 24.7339 23.2956 25.0636 23.2956 25.4074C23.2956 25.7512 23.4319 26.0809 23.6746 26.324C23.9173 26.5671 24.2465 26.7037 24.5898 26.7037ZM6.47099 26.7037C6.81424 26.7037 7.14342 26.5671 7.38613 26.324C7.62884 26.0809 7.76519 25.7512 7.76519 25.4074C7.76519 25.0636 7.62884 24.7339 7.38613 24.4908C7.14342 24.2477 6.81424 24.1111 6.47099 24.1111C6.12775 24.1111 5.79857 24.2477 5.55586 24.4908C5.31315 24.7339 5.1768 25.0636 5.1768 25.4074C5.1768 25.7512 5.31315 26.0809 5.55586 26.324C5.79857 26.5671 6.12775 26.7037 6.47099 26.7037Z" fill="black" fill-opacity="0.5"/>
</g>
</svg>
