<svg width="32" height="32" viewBox="0 0 32 32" fill="none" xmlns="http://www.w3.org/2000/svg">
<g id="material-symbols:play-shapes-outline-rounded">
<path id="Vector" d="M4.78853 14.3704C4.29242 14.3704 3.92055 14.1596 3.67293 13.7378C3.42531 13.3161 3.4197 12.8896 3.65611 12.4584L7.92696 4.74542C8.16423 4.31333 8.5417 4.09728 9.05938 4.09728C9.57706 4.09728 9.95453 4.31333 10.1918 4.74542L14.4627 12.4584C14.6999 12.8905 14.6947 13.3174 14.4471 13.7391C14.1995 14.1609 13.8272 14.3713 13.3302 14.3704H4.78853ZM9.05938 27.3334C7.63576 27.3334 6.41706 26.8257 5.40327 25.8102C4.38948 24.7948 3.88259 23.5741 3.88259 22.1482C3.88259 20.7007 4.38948 19.4744 5.40327 18.4693C6.41706 17.4643 7.63576 16.9622 9.05938 16.963C10.483 16.963 11.7017 17.4707 12.7155 18.4862C13.7293 19.5016 14.2362 20.7223 14.2362 22.1482C14.2362 23.5741 13.7293 24.7948 12.7155 25.8102C11.7017 26.8257 10.483 27.3334 9.05938 27.3334ZM9.05938 24.7408C9.77119 24.7408 10.3808 24.4872 10.8881 23.9799C11.3954 23.4726 11.6486 22.862 11.6478 22.1482C11.6478 21.4352 11.3945 20.8251 10.8881 20.3178C10.3816 19.8105 9.77205 19.5565 9.05938 19.5556C8.34757 19.5556 7.73844 19.8097 7.23197 20.3178C6.72551 20.826 6.47185 21.4361 6.47099 22.1482C6.47099 22.8612 6.72465 23.4717 7.23197 23.9799C7.7393 24.488 8.34843 24.7417 9.05938 24.7408ZM6.98866 11.7778H11.1301L9.05938 8.05098L6.98866 11.7778ZM18.1188 27.3334C17.7521 27.3334 17.4449 27.2089 17.1973 26.9601C16.9497 26.7112 16.8254 26.4035 16.8246 26.0371V18.2593C16.8246 17.892 16.9488 17.5844 17.1973 17.3363C17.4458 17.0883 17.7529 16.9639 18.1188 16.963H25.8839C26.2506 16.963 26.5582 17.0875 26.8067 17.3363C27.0552 17.5852 27.179 17.8929 27.1781 18.2593V26.0371C27.1781 26.4044 27.0539 26.7125 26.8054 26.9613C26.5569 27.2102 26.2498 27.3343 25.8839 27.3334H18.1188ZM19.413 24.7408H24.5897V19.5556H19.413V24.7408ZM20.1895 8.53709L17.7305 6.07413C17.4932 5.83647 17.3746 5.534 17.3746 5.16672C17.3746 4.79944 17.4932 4.49697 17.7305 4.25931C17.9678 4.02166 18.2697 3.90283 18.6364 3.90283C19.0031 3.90283 19.3051 4.02166 19.5424 4.25931L22.0014 6.72228L24.4603 4.25931C24.6976 4.02166 24.9996 3.90283 25.3663 3.90283C25.733 3.90283 26.0349 4.02166 26.2722 4.25931C26.5095 4.49697 26.6281 4.79944 26.6281 5.16672C26.6281 5.534 26.5095 5.83647 26.2722 6.07413L23.8132 8.53709L26.2722 11.0001C26.5095 11.2377 26.6281 11.5402 26.6281 11.9075C26.6281 12.2747 26.5095 12.5772 26.2722 12.8149C26.0349 13.0525 25.733 13.1713 25.3663 13.1713C24.9996 13.1713 24.6976 13.0525 24.4603 12.8149L22.0014 10.3519L19.5424 12.8149C19.3051 13.0525 19.0031 13.1713 18.6364 13.1713C18.2697 13.1713 17.9678 13.0525 17.7305 12.8149C17.4932 12.5772 17.3746 12.2747 17.3746 11.9075C17.3746 11.5402 17.4932 11.2377 17.7305 11.0001L20.1895 8.53709Z" fill="black" fill-opacity="0.5"/>
</g>
</svg>
