<svg width="42" height="42" viewBox="0 0 42 42" fill="none" xmlns="http://www.w3.org/2000/svg">
<g id="mdi:people-add" clip-path="url(#clip0_60_128)">
<path id="Vector" d="M33.25 29.75V33.25H12.25V29.75C12.25 29.75 12.25 22.75 22.75 22.75C33.25 22.75 33.25 29.75 33.25 29.75ZM28 14C28 12.9616 27.6921 11.9466 27.1152 11.0833C26.5383 10.2199 25.7184 9.54699 24.7591 9.14963C23.7998 8.75227 22.7442 8.64831 21.7258 8.85088C20.7074 9.05345 19.7719 9.55347 19.0377 10.2877C18.3035 11.0219 17.8034 11.9574 17.6009 12.9758C17.3983 13.9942 17.5023 15.0498 17.8996 16.0091C18.297 16.9684 18.9699 17.7883 19.8333 18.3652C20.6966 18.9421 21.7116 19.25 22.75 19.25C24.1424 19.25 25.4777 18.6969 26.4623 17.7123C27.4469 16.7277 28 15.3924 28 14ZM33.6 22.855C34.5566 23.7375 35.3278 24.8018 35.8687 25.9856C36.4095 27.1694 36.7091 28.4491 36.75 29.75V33.25H42V29.75C42 29.75 42 23.7125 33.6 22.855ZM31.5 8.75C30.9713 8.75032 30.4458 8.83298 29.9425 8.995C30.9663 10.4632 31.5153 12.2101 31.5153 14C31.5153 15.7899 30.9663 17.5368 29.9425 19.005C30.4458 19.167 30.9713 19.2497 31.5 19.25C32.8924 19.25 34.2277 18.6969 35.2123 17.7123C36.1969 16.7277 36.75 15.3924 36.75 14C36.75 12.6076 36.1969 11.2723 35.2123 10.2877C34.2277 9.30313 32.8924 8.75 31.5 8.75ZM14 17.5H8.75V12.25H5.25V17.5H0V21H5.25V26.25H8.75V21H14V17.5Z" fill="black"/>
</g>
<defs>
<clipPath id="clip0_60_128">
<rect width="42" height="42" fill="white"/>
</clipPath>
</defs>
</svg>
