<svg width="31" height="31" viewBox="0 0 31 31" fill="none" xmlns="http://www.w3.org/2000/svg">
<path id="Vector" d="M30.3055 12.5513C30.4866 13.5726 30.5769 14.6074 30.5753 15.644C30.5753 20.2736 28.8863 24.1881 25.9471 26.8376H25.951C23.3806 29.1638 19.8473 30.5105 15.6578 30.5105C11.5387 30.5105 7.58828 28.9073 4.67565 26.0537C1.76301 23.2001 0.126709 19.3297 0.126709 15.2941C0.126709 11.2584 1.76301 7.38808 4.67565 4.53445C7.58828 1.68082 11.5387 0.0776642 15.6578 0.0776642C19.5132 0.0334257 23.2366 1.45253 26.048 4.03773L21.6139 8.38202C20.0111 6.88506 17.8719 6.0653 15.6578 6.09956C11.6061 6.09956 8.16402 8.77764 6.93707 12.3839C6.28653 14.2736 6.28653 16.3202 6.93707 18.2099H6.9429C8.17567 21.8105 11.6119 24.4886 15.6636 24.4886C17.7564 24.4886 19.5541 23.9636 20.948 23.0354H20.9422C21.7516 22.5101 22.4439 21.8295 22.9774 21.0348C23.511 20.2401 23.8746 19.3477 24.0465 18.4115H15.6578V12.5532L30.3055 12.5513Z" fill="black" fill-opacity="0.5"/>
</svg>
